<?xml version="1.0" encoding="UTF-8"?>
<svg width="195px" height="195px" viewBox="0 0 195 195" version="1.1" xmlns="http://www.w3.org/2000/svg" xmlns:xlink="http://www.w3.org/1999/xlink">
    <!-- Generator: Sketch 60.1 (88133) - https://sketch.com -->
    <title>medium</title>
    <desc>Created with Sketch.</desc>
    <g id="Page-1" stroke="none" stroke-width="1" fill="none" fill-rule="evenodd">
        <g id="medium" fill="currentColor" fill-rule="nonzero">
            <path d="M195,0 L195,195 L0,195 L0,0 L195,0 Z M70.63,44 L32.65,44 L32.65,46.2 L42.254,65.216 C42.972339,65.5501374 43.7493714,65.7073786 44.5229513,65.6877234 L44.76,65.675 L44.76,123.116 L31,139.808 L31,142.008 L68.122,142.008 L68.122,139.807 L54.362,123.116 L54.362,73.042 L88.61,147.755 L95.521,147.755 L124.938,73.042 L124.938,132.593 C124.938,134.182 124.938,134.487 123.898,135.527 L123.898,135.527 L113.318,145.799 L113.318,148 L164.69,148 L164.69,139.929 L154.477,129.902 L154.477,56.228 C153.562642,55.7276442 152.456358,55.7276442 151.542,56.228 L151.542,56.228 L162,46.201 L162,44 L125.795,44 L99.985,108.381 L70.63,44 Z M46.534,65.216 C45.9752919,65.4758847 45.3810779,65.628758 44.7805981,65.67462 L44.76,65.675 L44.76,65.216 L46.534,65.216 Z" id="Path-2"></path>
        </g>
    </g>
</svg>