<svg xmlns="http://www.w3.org/2000/svg" width="24" height="24" viewBox="0 0 24 24"><path fill="currentColor" d="M12 17.484c-2.344 0-4.313-1.406-5.109-3.469H17.11c-.797 2.063-2.766 3.469-5.109 3.469zM8.859 9.938l-1.031 1.078L6.75 9.938l2.109-2.109 2.156 2.109-1.078 1.078zm4.125 0l2.156-2.109 2.109 2.109-1.078 1.078-1.031-1.078-1.078 1.078zM12 20.016c4.406 0 8.016-3.609 8.016-8.016S16.407 3.984 12 3.984 3.984 7.593 3.984 12 7.593 20.016 12 20.016zm0-18c5.531 0 9.984 4.453 9.984 9.984S17.531 21.984 12 21.984 2.016 17.531 2.016 12 6.469 2.016 12 2.016z"/></svg>