<svg xmlns="http://www.w3.org/2000/svg" width="24" height="24" viewBox="0 0 24 24"><path fill="currentColor" d="M12 20.016c4.406 0 8.016-3.609 8.016-8.016S16.407 3.984 12 3.984 3.984 7.593 3.984 12 7.593 20.016 12 20.016zm0-18c5.531 0 9.984 4.453 9.984 9.984S17.531 21.984 12 21.984 2.016 17.531 2.016 12 6.469 2.016 12 2.016zm-5.016 7.5c0-.844.656-1.5 1.5-1.5s1.5.656 1.5 1.5-.656 1.5-1.5 1.5-1.5-.656-1.5-1.5zm7.032 0c0-.844.656-1.5 1.5-1.5s1.5.656 1.5 1.5-.656 1.5-1.5 1.5-1.5-.656-1.5-1.5zM9 14.016h6v1.5H9v-1.5z"/></svg>