<?xml version="1.0" encoding="UTF-8"?>
<svg width="582px" height="326px" viewBox="0 0 582 326" version="1.1" xmlns="http://www.w3.org/2000/svg" xmlns:xlink="http://www.w3.org/1999/xlink">
    <!-- Generator: Sketch 52.6 (67491) - http://www.bohemiancoding.com/sketch -->
    <title>Artboard</title>
    <desc>Created with Sketch.</desc>
    <g id="Artboard" stroke="none" stroke-width="1" fill="none" fill-rule="evenodd">
        <rect id="Rectangle" fill-opacity="0.08" fill="#BCB5F8" x="25" y="289" width="380" height="9" rx="4.5"></rect>
        <rect id="Rectangle" fill-opacity="0.08" fill="#BCB5F8" x="52" y="306" width="132" height="9" rx="4.5"></rect>
        <rect id="Rectangle" fill-opacity="0.08" fill="#BCB5F8" x="209" y="306" width="74" height="9" rx="4.5"></rect>
        <rect id="Rectangle" fill-opacity="0.08" fill="#BCB5F8" x="10" y="272" width="380" height="9" rx="4.5"></rect>
        <rect id="Rectangle" fill-opacity="0.08" fill="#BCB5F8" x="74" y="255" width="442" height="9" rx="4.5"></rect>
        <g id="message-in-a-bottle" transform="translate(122.000000, 11.000000)">
            <g id="Group-2">
                <polygon id="Path" fill="#E2BA82" points="436.619 79.303 357.578 0.264 318.64 57.444 379.438 118.243"></polygon>
                <path d="M314.098216,273.038 L0.738,273.038 L129.926,143.85 C145.125,128.651 165.675,120.227 186.979,120.227 C189.36,120.227 191.761,120.329 194.161,120.542 C217.977,122.678 241.498,114.143 258.406,97.245 L294.603,61.038 L297.106,63.541 L314.289,80.724 L373.977,140.412 L376.48,142.915 L340.27,179.122 C325.081,194.311 316.647,214.861 316.647,236.144 C316.647,238.545 316.759,240.946 316.973,243.357 C317.8799,253.46114 316.862363,263.517988 314.098216,273.038 Z" id="Path-2" fill="#CDCDEC"></path>
                <g id="Group" transform="translate(0.000000, 21.000000)" fill="#DCDCF6">
                    <path d="M40.2618,252.038 L0.737,252.038 L129.924,122.851 C145.123,107.652 165.673,99.228 186.977,99.228 C189.358,99.228 191.759,99.33 194.159,99.543 C217.975,101.679 241.496,93.144 258.404,76.246 L294.601,40.039 L297.104,42.542 L314.287,59.725 C314.287,59.725 288.772,99.676 199.917,120.694 C146.362981,133.358528 82.5278483,200.601674 40.2618,252.038 Z" id="Combined-Shape"></path>
                    <path d="M409.216,84.181 L332.338,7.304 C322.608,-2.426 306.832,-2.426 297.101,7.304 C287.371,17.034 287.371,32.81 297.101,42.541 L373.979,119.419 C383.709,129.149 399.485,129.149 409.216,119.419 C418.946,109.688 418.946,93.912 409.216,84.181 Z" id="Path"></path>
                </g>
                <polygon id="Path" fill="#CFA66E" points="404.923 100.886 379.438 118.243 318.642 57.447 335.997 31.961"></polygon>
                <path d="M106.45,273.038 L249.32,130.168 C244.6,134.888 242.229,141.074 242.229,147.259 C242.229,153.455 244.599,159.64 249.32,164.361 L273.156,188.197 C282.597,197.648 297.908,197.648 307.349,188.197 L222.508,273.038 L106.45,273.038 Z" id="Combined-Shape" fill="#ECD8AB"></path>
                <path d="M307.354,154.002 L283.518,130.166 C274.074,120.722 258.762,120.722 249.318,130.166 C239.874,139.61 239.874,154.922 249.318,164.366 L273.154,188.202 C282.598,197.646 297.91,197.646 307.354,188.202 C316.798,178.758 316.798,163.446 307.354,154.002 Z" id="Path" fill="#DDC99C"></path>
            </g>
        </g>
    </g>
</svg>