<?xml version="1.0" encoding="UTF-8"?>
<svg width="150px" height="201px" viewBox="0 0 150 201" version="1.1" xmlns="http://www.w3.org/2000/svg" xmlns:xlink="http://www.w3.org/1999/xlink">
    <!-- Generator: Sketch 52.6 (67491) - http://www.bohemiancoding.com/sketch -->
    <title>Lamp</title>
    <desc>Created with Sketch.</desc>
    <g id="Page-1" stroke="none" stroke-width="1" fill="none" fill-rule="evenodd">
        <g id="163590-OW93DO-321" transform="translate(-50.000000, -341.000000)">
            <g id="g10" transform="translate(333.500000, 334.166670) scale(-1, 1) rotate(-180.000000) translate(-333.500000, -334.166670) translate(0.000000, 0.666670)">
                <g id="g12">
                    <g id="Lamp" transform="translate(50.000000, 126.000000)">
                        <path d="M56.9275973,170.446659 C56.9275973,170.446659 3.491732,118.089327 3.174532,117.026661 C2.85733201,115.963994 3.92546532,113.690661 5.67759861,114.415994 C7.4297319,115.142661 58.2515973,167.695993 58.2515973,167.695993 L56.9275973,170.446659" id="path60" fill="#201D1B"></path>
                        <path d="M59.6630639,165.754659 C59.6630639,165.754659 8.08639855,113.017327 7.79479856,111.946661 C7.50306523,110.875994 8.19586521,108.561327 9.92973184,109.329327 C11.6639985,110.097327 61.4890639,163.674659 61.4890639,163.674659 L59.6630639,165.754659" id="path62" fill="#201D1B"></path>
                        <polyline id="path64" fill="#201D1B" points="59.9994639 168.486659 85.9293299 167.579993 85.1839966 160.541326 59.7973306 160.806659 59.9994639 168.486659"></polyline>
                        <path d="M94.978663,173.479993 C94.978663,173.479993 95.8493297,153.049326 94.5133297,151.949326 C93.1626631,150.845326 84.27333,153.88666 83.12453,155.399993 C82.8234633,155.799993 82.75573,157.05466 82.84013,158.717326 C83.07293,163.451993 84.48133,171.409326 85.1679966,171.890659 C85.6506633,172.213326 88.2639965,172.771993 90.6786631,173.145326 C92.8759964,173.515993 94.9119964,173.725326 94.978663,173.479993" id="path66" fill="#332F2D"></path>
                        <path d="M94.978663,173.479993 C94.978663,173.479993 95.8493297,153.049326 94.5133297,151.949326 C93.1626631,150.845326 84.27333,153.88666 83.12453,155.399993 C82.8234633,155.799993 82.75573,157.05466 82.84013,158.717326 C84.9759966,158.457326 87.2679966,158.107993 89.2813299,157.651993 C89.3453298,159.601326 90.3226632,169.285326 90.6786631,173.145326 C92.8759964,173.515993 94.9119964,173.725326 94.978663,173.479993" id="path68" fill="#201D1B"></path>
                        <path d="M149.829328,149.38266 C149.447995,148.73466 146.907995,147.633326 143.153329,146.30666 C142.461329,146.06666 141.727995,145.811993 140.950662,145.55866 C139.991995,145.23466 138.989329,144.89466 137.917329,144.57066 C137.253329,144.359993 136.575995,144.14666 135.885329,143.93466 C131.142662,142.481327 125.679996,140.957327 120.331996,139.57466 C116.223996,138.501327 112.173329,137.527993 108.587996,136.751993 C101.926663,135.31066 96.8039963,134.549327 95.6599964,135.127993 C94.6013297,137.695993 93.3453297,190.058659 95.3919964,192.557325 C96.0973297,193.530659 98.426663,194.730659 101.46133,195.917325 C103.351996,196.663992 105.526663,197.398659 107.713329,198.047992 C110.281329,198.809325 112.878663,199.459992 115.150663,199.910659 C115.349329,199.938659 115.531996,199.981325 115.715996,200.009325 C116.238663,200.107992 116.746662,200.193325 117.211996,200.262659 C117.325329,200.277325 117.438662,200.291992 117.535996,200.306659 C119.541329,200.587992 121.050662,200.602659 121.643996,200.235992 C124.479996,198.498659 146.865328,156.495993 149.829328,149.38266" id="path70" fill="#332F2D"></path>
                        <path d="M54.980664,172.533326 C53.8202641,171.949326 55.307864,157.61866 56.1447973,157.23866 C56.9811973,156.859993 67.5447971,163.459993 67.4926637,164.755993 C67.4417304,166.029326 56.0521307,173.073326 54.980664,172.533326" id="path76" fill="#201D1B"></path>
                        <path d="M56.1193307,170.559993 C55.6187974,170.387993 56.8281307,159.683993 57.165064,159.457326 C57.5021306,159.229326 64.8197305,164.022659 65.0239971,164.639993 C65.2734638,165.395993 56.787464,170.790659 56.1193307,170.559993" id="path78" fill="#332F2D"></path>
                        <path d="M58.3161306,160.977326 C58.3901306,160.711993 58.233864,160.437326 57.9677306,160.36266 C57.701064,160.29066 57.425464,160.44666 57.352664,160.711993 C57.2791973,160.978659 57.435464,161.253326 57.7021306,161.327993 C57.968264,161.401326 58.2431973,161.245326 58.3161306,160.977326" id="path80" fill="#201D1B"></path>
                        <path d="M64.0963971,164.797326 C64.1697305,164.530659 64.0130638,164.254659 63.7473305,164.182659 C63.4811972,164.109326 63.2057305,164.265326 63.1322638,164.530659 C63.0593305,164.798659 63.2155972,165.073326 63.4817305,165.145326 C63.7478638,165.219993 64.0229305,165.063993 64.0963971,164.797326" id="path82" fill="#201D1B"></path>
                        <path d="M57.5291973,169.147993 C57.602664,168.882659 57.4469306,168.607993 57.180264,168.533326 C56.9139973,168.461326 56.6395973,168.617326 56.5655973,168.882659 C56.4921307,169.149326 56.6483973,169.423993 56.9145307,169.497326 C57.180664,169.571993 57.456264,169.415993 57.5291973,169.147993" id="path84" fill="#201D1B"></path>
                        <path d="M7.24319857,119.991994 C7.24319857,119.991994 12.1838651,111.347994 12.0655984,110.877327 C11.9478651,110.406661 6.24319859,103.526661 5.42026528,103.761328 C4.59693197,103.995994 0.127598747,114.405327 0.480665405,115.405327 C0.973465392,116.802661 7.24319857,119.991994 7.24319857,119.991994" id="path86" fill="#201D1B"></path>
                        <path d="M7.14786524,107.887994 C7.14786524,107.887994 27.3010647,50.6799956 38.0806645,20.7359963 C39.6302644,16.4306631 36.4942645,17.2866631 36.2155978,17.6253297 C34.9806645,19.1253297 4.08639865,105.702661 4.25839864,107.251994 C4.43066531,108.802661 6.28693193,109.610661 7.14786524,107.887994" id="path88" fill="#201D1B"></path>
                        <path d="M11.4655985,109.701327 C11.4655985,109.701327 31.522398,52.3599955 42.3015977,22.4159963 C43.8515977,18.1106631 41.1817311,19.1039964 40.9035977,19.442663 C39.6687978,20.9413297 8.38639854,107.514661 8.55933187,109.065327 C8.73119853,110.614661 10.6046652,111.422661 11.4655985,109.701327" id="path90" fill="#201D1B"></path>
                        <path d="M70.5374637,8.42799664 L60.8843972,8.52799664 L52.6978641,8.59732997 L34.2369312,8.78132996 L25.9093314,8.86532996 L16.3827983,8.96532996 C16.3827983,8.96532996 20.6171982,22.7266629 20.9697316,23.7839963 C21.0693316,24.0946629 24.7526648,24.3199962 29.9469313,24.4759962 C32.0207979,24.5319962 34.3359979,24.5746629 36.7635978,24.6026629 C40.9270644,24.6453296 45.4150643,24.6599962 49.5786642,24.6173296 L51.5693308,24.5879962 C53.0786641,24.5746629 54.5182641,24.5466629 55.8739974,24.5039962 L56.7765307,24.4893296 C61.5333305,24.3493296 64.9062638,24.1239962 65.2447971,23.7839963 C66.4869304,22.542663 70.5374637,8.42799664 70.5374637,8.42799664" id="path92" fill="#332F2D"></path>
                        <polyline id="path94" fill="#201D1B" points="16.380665 8.96399663 9.14733185 8.96399663 4.91359863 0.623996834 81.1275967 0.623996834 75.9526635 8.62132997 16.380665 8.96399663"></polyline>
                    </g>
                </g>
            </g>
        </g>
    </g>
</svg>