<?xml version="1.0" encoding="UTF-8"?>
<svg width="813px" height="665px" viewBox="0 0 813 665" version="1.1" xmlns="http://www.w3.org/2000/svg" xmlns:xlink="http://www.w3.org/1999/xlink">
    <!-- Generator: Sketch 52.6 (67491) - http://www.bohemiancoding.com/sketch -->
    <title>Artboard</title>
    <desc>Created with Sketch.</desc>
    <g id="Artboard" stroke="none" stroke-width="1" fill="none" fill-rule="evenodd">
        <g id="palm" transform="translate(48.000000, 20.000000)">
            <path d="M262.856471,32.1431141 C290.19586,11.9291409 323.994696,0 360.580816,0 C397.166937,0 430.965772,11.9446847 458.305162,32.1431141 L615,165 L93,165 L262.856471,32.1431141 Z" id="Path" fill="#418019"></path>
            <polygon id="Path" fill="#D9B37E" points="290 645 305.439299 552.61734 324.913194 436 402.321962 473.146795 415.600325 552.61734 431 644.76206"></polygon>
            <path d="M416,552.618125 L402.785103,473.147045 L325.746321,436 L325.746321,436.001408 L325.743505,436 L291,645 L333.958627,644.802889 L338.292235,581.787792 C339.340075,565.38531 352.952137,552.618125 369.39365,552.618125 L416,552.618125 Z" id="Path" fill="#CFA66E"></path>
            <polygon id="Path" fill="#D9B37E" points="427 519 295 519 306.279228 450.848119 325.63593 334 402.517399 371.214403 415.705311 450.848119"></polygon>
            <g id="Group" transform="translate(295.000000, 334.000000)">
                <polygon id="Path" fill="#E25D1B" points="66.125093 17.174 51.909 10.2990455 52.5562093 0.0662272727"></polygon>
                <path d="M120.890256,116.793909 L107.688593,37.2422727 L30.7269651,0.0648181818 L30.7269651,0.0662272727 L30.7241512,0.0648181818 L20.1999651,63.4936364 L11.3528953,116.793909 L11.3557093,116.793909 L0.0576860465,184.875545 L40.7812209,184.875545 L43.2715698,145.818364 C44.3127326,129.496864 57.8323721,116.793909 74.1617442,116.793909 L120.890256,116.793909 Z" id="Path" fill="#CFA66E"></path>
            </g>
            <polygon id="Path" fill="#D9B37E" points="427 418 295 418 306.294689 349.834013 325.63593 233 402.517399 270.214403 415.705311 349.834013"></polygon>
            <path d="M416,349.834013 L402.780198,270.215813 L325.712827,233 L325.712827,233.001411 L325.710009,233 L295,418 L335.779488,418 L338.263396,379.05768 C339.311625,362.624833 352.928739,349.834013 369.376354,349.834013 L416,349.834013 Z" id="Path" fill="#CFA66E"></path>
            <polygon id="Path" fill="#D9B37E" points="427 316 295 316 301.417565 277.25263 303.797095 262.866594 325.63593 131 361 164.57212 402.517399 168.21553 418.202905 262.866594 420.582435 277.25263 420.582435 277.266736"></polygon>
            <path d="M421,277.253746 L418.612557,262.86901 L402.876307,168.217224 L361.219452,164.572376 L325.737795,131 L303.826346,262.867599 L301.438903,277.252335 L295,316 L335.816385,316 L340.292311,245.783081 C340.616654,240.692425 342.785518,235.895162 346.39136,232.286989 C354.580302,224.095955 367.857191,224.095955 376.046133,232.286989 L421,277.253746 Z" id="Path" fill="#CFA66E"></path>
            <path d="M153.756387,165 L0,165 C0,82.7074842 80.8047734,16 180.5,16 C280.179715,16 361,82.7074842 361,165" id="Path" fill="#96C133"></path>
            <g id="Group" transform="translate(68.000000, 15.000000)" fill="#499421">
                <path d="M293.168185,149.337753 C234.936815,91.0375087 130.616767,100.959303 60.1595431,171.499861 C-10.297681,242.040418 -20.2077543,346.48385 38.0250259,404.782683 L293.168185,149.337753 Z" id="Path"></path>
                <path d="M500.317047,149.340575 L654,149.340575 C654,66.8856794 573.218315,0.0465679443 473.586207,0.0465679443 C373.938595,0.0465679443 293.172414,66.8856794 293.172414,149.340575" id="Path"></path>
            </g>
            <path d="M593.944333,187.055328 C523.507964,116.61843 419.215299,106.711017 361,164.925344 L531.727207,335.653833 L585.784271,316.194103 L567.405461,371.332355 L616.072741,420 C674.289449,361.785673 664.382111,257.492226 593.944333,187.055328 Z" id="Path" fill="#96C133"></path>
        </g>
    </g>
</svg>