<?xml version="1.0" encoding="UTF-8"?>
<svg width="1135px" height="488px" viewBox="0 0 1135 488" version="1.1" xmlns="http://www.w3.org/2000/svg" xmlns:xlink="http://www.w3.org/1999/xlink">
    <!-- Generator: Sketch 60.1 (88133) - https://sketch.com -->
    <title>Artboard</title>
    <desc>Created with Sketch.</desc>
    <g id="Artboard" stroke="none" stroke-width="1" fill="none" fill-rule="evenodd">
        <rect fill="#FDEEEA" x="0" y="0" width="1135" height="488"></rect>
        <g id="fish" transform="translate(-7.000000, 244.000000)">
            <path d="M90.011719,97.011719 L90.011719,157.015625 C90.011719,198.421875 56.40625,232.023438 15,232.023438 L0,232.023438 L0,187.019531 C0,162.417969 12.003906,140.8125 30.605469,127.011719 C12.003906,113.210938 0,91.609375 0,67.007812 L0,22 L15,22 C56.40625,22 90.011719,55.605469 90.011719,97.011719 Z" id="Path" fill="#FFCEBF" fill-rule="nonzero"></path>
            <path d="M368.140624,210.324219 L356.738281,243.628906 C335.738281,251.128906 314.132812,255.027344 292.230468,255.027344 C199.820312,255.027344 98.707031,189.921875 30,127.515625 C98.707031,65.105469 199.820312,4.26325641e-14 292.230468,4.26325641e-14 C310.832031,4.26325641e-14 328.832031,3.300781 346.238281,8.398438 L352.839843,53.105469 C341.4375,76.207031 336.035156,102.011719 337.535156,127.515625 C339.035156,156.617188 348.9375,185.417969 368.140624,210.324219 Z" id="Path" fill="#F89580" fill-rule="nonzero"></path>
            <path d="M344.042969,7.5 C317.9375,45.304688 303.539062,86.109375 305.335938,127.511719 C306.535156,166.515625 322.140625,206.121094 354.242188,244.226562 C410.648438,220.824219 453.597656,184.515625 486,127.511719 C452.695312,69.308594 407.648438,30.003906 344.042969,7.5 L344.042969,7.5 Z" id="Path" fill="#FFCEBF" fill-rule="nonzero"></path>
            <polygon id="Path" fill="#68544F" fill-rule="nonzero" points="358.734375 127.496094 380.035156 106.191406 401.335938 127.496094 380.035156 148.796875"></polygon>
            <circle id="Oval" fill="#333333" cx="380.5" cy="127.5" r="21.5"></circle>
            <path d="M215.027344,82.507812 C187.425781,82.507812 167.320312,104.710938 152.019531,127.511719 C167.320312,150.316406 187.425781,172.519531 215.027344,172.519531 C242.628906,172.519531 262.734375,150.316406 278.03125,127.511719 C262.734375,104.710938 242.628906,82.507812 215.027344,82.507812 Z" id="Path" fill="#FFCEBF" fill-rule="nonzero"></path>
        </g>
    </g>
</svg>